
        <svg xmlns="http://www.w3.org/2000/svg" xmlns:xlink="http://www.w3.org/1999/xlink" version="1.1" width="3195.4397394136813" height="1094.4625407166125" viewBox="0 0 3195.4397394136813 1094.4625407166125">
			
			<g transform="scale(9.77198697068404) translate(10, 10)">
				<defs id="SvgjsDefs1822"/><g id="SvgjsG1823" featureKey="symbolFeature-0" transform="matrix(0.7996496760452438,0,0,0.7996496760452438,13.434235540663472,16.00175161977378)" fill="#fff"><g xmlns="http://www.w3.org/2000/svg"><ellipse cx="49.8" cy="28" rx="21.9" ry="23"/><path d="M91,77.9L91,77.9C87.7,58.2,64.1,51.8,61,51.1c-6.6,5.1-15.8,5.1-22.4,0c-3.1,0.7-26.2,7.1-29.5,26.8l0,0   c-1.7,8.2-1.1,15.1,3,16.7c3.3,1.4,13.3-1.9,17-3.2c0.4-0.1,0.9-0.3,1.3-0.5c0,0,0.1,0,0.1,0l0,0c2.2-1.1,3.8-3.4,3.8-6v-0.3   c0-3.7-3-6.7-6.7-6.7h-0.3c-0.8,0-1.5,0.1-2.2,0.4v-11c0,0,13.9,0,23.4,6.2L48.4,95l2.8,0l-0.1-21.5c9.5-6.2,23.4-6.2,23.4-6.2v11   c-0.7-0.2-1.4-0.4-2.2-0.4h-0.3c-3.7,0-6.7,3-6.7,6.7v0.3c0,3.2,2.3,5.9,5.3,6.6c3.6,1.3,13.7,4.6,17.1,3.2   C91.8,93,92.8,86.1,91,77.9z"/></g></g><g id="SvgjsG1824" featureKey="nameFeature-0" transform="matrix(0.9886979973117661,0,0,0.9886979973117661,104.17538753586682,16.701252188367064)" fill="#fff"><path d="M20.857 17.714 l-10.571 0 l0 4.8571 l14 0 l4.2857 4.2857 l0 8.8571 l-4.2857 4.2857 l-17.143 0 l-4.2857 -4.2857 l0 -4.2857 l5.4286 0 l2.2857 2.2857 l10.571 0 l0 -4.8571 l-14 0 l-4.2857 -4.2857 l0 -8.8571 l4.2857 -4.2857 l17.143 0 l4.2857 4.2857 l0 4.2857 l-5.4286 0 z M32.285711428571425 17.714 l0 -6.2857 l24.286 0 l0 6.2857 l-8.4571 0 l0 22.286 l-7.4286 0 l0 -22.286 l-8.4 0 z M60.28567142857143 35.7143 l0 -24.286 l7.4286 0 l0 22.286 l10.286 0 l0 -22.286 l7.4286 0 l0 24.286 l-4.2857 4.2857 l-16.571 0 z M111.99971428571429 11.428999999999998 l4.2857 4.2857 l0 20 l-4.2857 4.2857 l-20.857 0 l0 -28.571 l20.857 0 z M108.85671428571429 33.7143 l0 -16 l-10.286 0 l0 16 l10.286 0 z M146.28585714285714 17.714 l-16.857 0 l0 4.8571 l14.571 0 l0 6.2857 l-14.571 0 l0 4.8571 l16.857 0 l0 6.2857 l-20 0 l-4.2857 -4.2857 l0 -24.286 l24.286 0 l0 6.2857 z M169.71385714285717 11.428999999999998 l7.4286 0 l0 28.571 l-6.5714 0 l-11.143 -16 l0 16 l-7.4286 0 l0 -28.571 l6.5714 0 l11.143 15.886 l0 -15.886 z M180.85714000000002 17.714 l0 -6.2857 l24.286 0 l0 6.2857 l-8.4571 0 l0 22.286 l-7.4286 0 l0 -22.286 l-8.4 0 z"/></g><g id="SvgjsG1825" featureKey="nameFeature-1" transform="matrix(0.6542048704602283,0,0,0.6542048704602283,105.13087188201793,58.523808211840354)" fill="#fff"><path d="M24 11.428999999999998 l7.4286 0 l0 28.571 l-7.4286 0 l0 -16 l-5.0286 9.7143 l-3.7143 0 l-4.9714 -9.7143 l0 16 l-7.4286 0 l0 -28.571 l7.4286 0 l6.8571 12.971 z M37.14281428571429 40 l0 -24.286 l4.2857 -4.2857 l16.571 0 l4.2857 4.2857 l0 24.286 l-7.4286 0 l0 -8 l-10.286 0 l0 8 l-7.4286 0 z M44.571714285714286 25.714 l10.286 0 l0 -8 l-10.286 0 l0 8 z M85.71385714285714 11.428999999999998 l7.4286 0 l0 28.571 l-6.5714 0 l-11.143 -16 l0 16 l-7.4286 0 l0 -28.571 l6.5714 0 l11.143 15.886 l0 -15.886 z M98.8571 40 l0 -24.286 l4.2857 -4.2857 l16.571 0 l4.2857 4.2857 l0 24.286 l-7.4286 0 l0 -8 l-10.286 0 l0 8 l-7.4286 0 z M106.286 25.714 l10.286 0 l0 -8 l-10.286 0 l0 8 z M147.71414285714286 17.714 l-10.571 0 l0 16 l10.857 0 l0 -4.8571 l-6.5714 0 l0 -6.2857 l14 0 l0 13.143 l-4.2857 4.2857 l-17.143 0 l-4.2857 -4.2857 l0 -20 l4.2857 -4.2857 l17.143 0 l4.2857 4.2857 l0 4.2857 l-5.4286 0 z M185.42871428571428 17.714 l-16.857 0 l0 4.8571 l14.571 0 l0 6.2857 l-14.571 0 l0 4.8571 l16.857 0 l0 6.2857 l-20 0 l-4.2857 -4.2857 l0 -24.286 l24.286 0 l0 6.2857 z M212.28571428571428 11.428999999999998 l7.4286 0 l0 28.571 l-7.4286 0 l0 -16 l-5.0286 9.7143 l-3.7143 0 l-4.9714 -9.7143 l0 16 l-7.4286 0 l0 -28.571 l7.4286 0 l6.8571 12.971 z M249.71442857142856 17.714 l-16.857 0 l0 4.8571 l14.571 0 l0 6.2857 l-14.571 0 l0 4.8571 l16.857 0 l0 6.2857 l-20 0 l-4.2857 -4.2857 l0 -24.286 l24.286 0 l0 6.2857 z M273.1424285714286 11.428999999999998 l7.4286 0 l0 28.571 l-6.5714 0 l-11.143 -16 l0 16 l-7.4286 0 l0 -28.571 l6.5714 0 l11.143 15.886 l0 -15.886 z M284.2857114285714 17.714 l0 -6.2857 l24.286 0 l0 6.2857 l-8.4571 0 l0 22.286 l-7.4286 0 l0 -22.286 l-8.4 0 z"/></g>
			</g>
		</svg>
	